<svg xmlns="http://www.w3.org/2000/svg" xmlns:xlink="http://www.w3.org/1999/xlink" width="981.312" height="981.313" viewBox="0 0 981.312 981.313">
  <defs>
    <linearGradient id="linear-gradient" x1="1.449" x2="1.449" y2="1.399" gradientUnits="objectBoundingBox">
      <stop offset="0" stop-color="#b085f5"/>
      <stop offset="1" stop-color="#58437b"/>
    </linearGradient>
  </defs>
  <g id="Group_3" data-name="Group 3" transform="translate(-1049 -162)" opacity="0.05">
    <path id="Path_110" data-name="Path 110" d="M500.858,988.413c-270.532,0-490.638-220.106-490.638-490.638S230.326,7.1,500.858,7.1,991.532,227.242,991.532,497.774,771.39,988.413,500.858,988.413Zm0-901.594C273.893,86.818,89.9,270.81,89.9,497.774S273.893,908.73,500.858,908.73,911.813,724.739,911.813,497.774c-.258-226.858-184.1-410.7-410.956-410.956Z" transform="translate(1038.78 154.9)" fill="url(#linear-gradient)"/>
    <path id="Path_111" data-name="Path 111" d="M25.32,410.113c31.449,28.178,71.883,41.369,111.67,42.519A248.824,248.824,0,0,0,252,428.407a386.552,386.552,0,0,0,96.108-70.266c29.256-28,56.572-58.872,84.534-90.105s60.022-61.748,94.706-86.943a475.434,475.434,0,0,1,113.719-61.46c80.9-30.55,172.2-34.145,251.519-5.787a430.075,430.075,0,0,0-239.442,34.54c-73.608,33.641-136.9,84.93-190.814,146.5-28.322,30.371-56.428,62.107-88.452,90.86S306.1,440.52,264.619,456.8A251.593,251.593,0,0,1,135.229,472C92.171,465.355,50.192,444.509,25.32,410.113Z" transform="translate(1077.952 381.655)" fill="url(#linear-gradient)"/>
    <path id="Path_112" data-name="Path 112" d="M521.293,163.15c-14.125-2.085-28-4.313-41.656-6.829l-20.343-3.882c-6.829-.9-13.8-1.042-20.666-1.617-13.73-.934-27.244-2.732-40.794-3.2-13.586.755-27.064.9-40.434,1.33-53.337,4.565-104.841,19.157-149.625,46.724-45.178,26.561-83.42,64.695-114.042,108.759s-54.415,94.2-61.352,150.235c-5.894-27.962-2.156-57.147,3.235-85.541,7.548-27.782,17.036-55.6,31.557-80.9A333.791,333.791,0,0,1,187.324,161.5c6.433-3.594,12.687-7.763,19.3-11.106l20.559-8.662,20.559-8.59q10.783-3.019,21.565-5.5c14.377-3.594,28.753-7.188,43.561-7.692s29.328-3.594,43.885-1.8,29.077,2.192,43.453,3.594c14.377,2.7,28.142,6.613,42.052,9.956,6.9,1.977,13.873,3.594,20.594,5.786l19.8,8.267C495.7,151.4,508.606,157.148,521.293,163.15Z" transform="translate(1088.503 441.542)" fill="url(#linear-gradient)"/>
    <ellipse id="Ellipse_49" data-name="Ellipse 49" cx="47.335" cy="47.335" rx="47.335" ry="47.335" transform="translate(1315.47 435.983)" fill="url(#linear-gradient)"/>
    <ellipse id="Ellipse_50" data-name="Ellipse 50" cx="28.645" cy="28.645" rx="28.645" ry="28.645" transform="translate(1370.281 336.352)" fill="url(#linear-gradient)"/>
  </g>
</svg>
