<svg xmlns="http://www.w3.org/2000/svg" xmlns:xlink="http://www.w3.org/1999/xlink" width="181" height="60.027" viewBox="0 0 181 60.027">
  <defs>
    <linearGradient id="linear-gradient" x1="1.449" x2="1.449" y2="1.399" gradientUnits="objectBoundingBox">
      <stop offset="0" stop-color="#9a72db"/>
      <stop offset="1" stop-color="#3c2b57"/>
    </linearGradient>
  </defs>
  <g id="Group_1" data-name="Group 1" transform="translate(-845 -276)">
    <path id="Path_1" data-name="Path 1" d="M40.232,67.127A30.013,30.013,0,1,1,70.247,37.115,30.047,30.047,0,0,1,40.232,67.127Zm0-55.151A25.138,25.138,0,1,0,65.371,37.115,25.138,25.138,0,0,0,40.232,11.976Z" transform="translate(834.78 268.9)" fill="url(#linear-gradient)"/>
    <path id="Path_2" data-name="Path 2" d="M25.32,113.815a10.637,10.637,0,0,0,6.831,2.6,15.221,15.221,0,0,0,7.035-1.482,23.645,23.645,0,0,0,5.879-4.3c1.79-1.713,3.461-3.6,5.171-5.512a37.576,37.576,0,0,1,5.793-5.318,29.082,29.082,0,0,1,6.956-3.76,22.6,22.6,0,0,1,15.385-.354,26.308,26.308,0,0,0-14.647,2.113,34.949,34.949,0,0,0-11.672,8.961c-1.732,1.858-3.452,3.8-5.411,5.558a22.369,22.369,0,0,1-6.684,4.347,15.39,15.39,0,0,1-7.915.93A10.179,10.179,0,0,1,25.32,113.815Z" transform="translate(823 200.708)" fill="url(#linear-gradient)"/>
    <path id="Path_3" data-name="Path 3" d="M59.477,120.382c-.864-.128-1.713-.264-2.548-.418l-1.244-.237c-.418-.055-.844-.064-1.264-.1-.84-.057-1.666-.167-2.5-.2-.831.046-1.656.055-2.473.081a20.724,20.724,0,0,0-9.153,2.858,22.554,22.554,0,0,0-6.976,6.653,20.6,20.6,0,0,0-3.753,9.19,13.4,13.4,0,0,1,.2-5.233,20.873,20.873,0,0,1,1.93-4.949,20.418,20.418,0,0,1,7.35-7.752c.394-.22.776-.475,1.181-.679l1.258-.53,1.258-.525q.66-.185,1.319-.336a12.827,12.827,0,0,1,2.665-.47,17.217,17.217,0,0,1,2.684-.11c.89.11,1.779.134,2.658.22.879.165,1.721.4,2.572.609.422.121.849.22,1.26.354l1.211.506C57.912,119.663,58.7,120.015,59.477,120.382Z" transform="translate(819.827 182.698)" fill="url(#linear-gradient)"/>
    <ellipse id="Ellipse_1" data-name="Ellipse 1" cx="2.895" cy="2.895" rx="2.895" ry="2.895" transform="translate(861.3 292.76)" fill="url(#linear-gradient)"/>
    <ellipse id="Ellipse_2" data-name="Ellipse 2" cx="1.752" cy="1.752" rx="1.752" ry="1.752" transform="translate(864.653 286.665)" fill="url(#linear-gradient)"/>
    <path id="Path_4" data-name="Path 4" d="M311.764,82.095a2.113,2.113,0,0,0,.095-.572c0-2.286-3.619-4.617-5.277-5.716-2.047-1.332-5.716-3.285-5.716-4.808a.77.77,0,0,1,.189-.334c2.939-3.331,9.61-7.044,13.937-7.282a8.688,8.688,0,0,1-2.9,3.619,1.779,1.779,0,0,0-.761-.334c-.429,0-2.429,2.9-3.238,4a1.915,1.915,0,0,0-.38,1.1,1.74,1.74,0,0,0,1.524,1.809.917.917,0,0,0,.572-.189,34.031,34.031,0,0,0,5.237-4.571c1.341-1.339,4.2-4.338,4.2-5.956a3.152,3.152,0,0,0-.712-1.759,3.518,3.518,0,0,0-2.81-1.381c-6.855,0-15.425,2.57-19.378,8.33a6.07,6.07,0,0,0-1.189,3.285c0,2.715,3.518,4.857,5.809,6.143,2.141,1.238,6.237,3,6.237,4.285-1.809,3.619-5.428,4.76-9.522,4.76a3.414,3.414,0,0,1-1.666-.38,14.3,14.3,0,0,1,2.379-.715,54.231,54.231,0,0,1,5.463-.857,1.551,1.551,0,0,0,1.1-1.381c0-.286-.191-.525-.62-.525-3.957.24-10.949.857-10.949,4.19,0,2.618,4.331,3.9,6.094,3.9a13.766,13.766,0,0,0,6.495-1.783h.015C308.8,87.406,311.1,84.961,311.764,82.095Zm.583-21.722-.031-.026c.182-.033.356-.075.543-.106-.185.042-.347.088-.521.132Zm-14.754,6.884h0l-.029.024ZM310.845,83.24Zm-12.358,6.98Zm28.075-16.511c-.095-.9-1.143-3.19-2.761-3.19-1.475,0-3.19,1.381-4.522,2.9-.191-1.047-2.144-2.238-2.858-2.238-.143,0-.237.048-.237.191-.572,3.619-6.376,14.427-6.376,20.666,0,2.572,1.049,4.571,4,4.571.809,0,1.1-.237,1.1-.523,0-.189-.237-.38-.569-.44A10.149,10.149,0,0,1,314,92.889a31.106,31.106,0,0,1,1.666-8.616c.857,1.381,2.284,2.761,3.957,2.761a3.219,3.219,0,0,0,1.524-.429c2.1-1.1,5.477-7.238,5.477-11.951a6.291,6.291,0,0,0-.064-.941Zm-8.19,10.571a2.616,2.616,0,0,1-1.475-2.418,6.065,6.065,0,0,1,.332-1.713c.477-.048.954-.191,1-.334.429-1.238,2.333-6.094,5.191-7.521.095.046.143.143.143.38,0,1.992-4,11.657-5.191,11.611Zm15.665-14.332a.464.464,0,0,0,.38-.143,32.5,32.5,0,0,1,2.761-3.9.176.176,0,0,0,.048-.143c0-.66-2.1-1.952-2.953-1.952-.9,0-2.238,3.762-2.238,4.571,0,.765,1.335,1.574,2,1.574Zm.235-5.18h0v0Zm37.138,8.946c-.095-.9-1.141-3.19-2.761-3.19-1.475,0-3.188,1.381-4.522,2.9-.189-1.047-2.141-2.238-2.858-2.238-.143,0-.237.048-.237.191-.4,2.5-3.3,8.427-5.039,13.91a28.21,28.21,0,0,1-1.579-7.436,7.14,7.14,0,0,1,.143-1.427c1.047-.954,3.856-2.572,3.856-4.239a1.3,1.3,0,0,0-.048-.44,2.608,2.608,0,0,0,.62-1.475,2.56,2.56,0,0,0-.477-.761l-.189-.048-.24.143a.356.356,0,0,0,.048-.191c0-.095-.095-.143-.191-.143a.823.823,0,0,0-.237-.095c-1.381,0-5.857,3.047-6.855,5.716a7.44,7.44,0,0,0-.334,2.418c0,.152,0,.314.015.47-1.64,1.671-3.34,5.7-5.729,7.242.095-3.379,4.094-10.568,4.094-11.855a2.554,2.554,0,0,0-2.57-2.333c-1.856,0-4.237,2.667-6.376,5.76.525-1.047,1.952-3.047,1.952-3.713a1.5,1.5,0,0,0-.38-.9h0l-.04-.055h0l-.015-.022h0a4.126,4.126,0,0,0-2.454-1.451.741.741,0,0,0-.715.429,51.636,51.636,0,0,0-2.97,6.991c-1.616,1.728-3.3,5.767-5.648,7.2,0-2.81,1.62-7.095,3.858-11.142a1.724,1.724,0,0,0,.237-.9c0-1.332-1.667-2.238-2.761-2.238a.843.843,0,0,0-.809.38c-2,4.476-3.762,9.047-3.762,12.237,0,2,.857,3.9,3,3.9,1.4,0,3.249-2.212,4.8-4.6-.022.295-.04.578-.04.835,0,2.618,1.1,3.476,1.858,3.476a.583.583,0,0,0,.618-.477,47.355,47.355,0,0,1,7.712-12.475c-.38.954-2.9,6.237-2.9,9.856,0,2.238,1.286,3.428,2.524,3.428,1.308,0,2.728-1.233,4.019-2.845a7.424,7.424,0,0,0,2.456,2.8,7.038,7.038,0,0,0,3.19.712,4.7,4.7,0,0,0,1.629-.251,18.1,18.1,0,0,0-.629,4.25c0,2.572,1.047,4.571,4,4.571.809,0,1.1-.237,1.1-.523,0-.189-.237-.38-.572-.44a10.235,10.235,0,0,1-.334-2.761,31.106,31.106,0,0,1,1.667-8.616c.857,1.381,2.286,2.761,3.957,2.761a3.225,3.225,0,0,0,1.524-.429c2.1-1.1,5.474-7.238,5.474-11.951A6.291,6.291,0,0,0,371.411,73.714ZM349.535,82.4c.46-.719.879-1.438,1.247-2.115a19.673,19.673,0,0,0,1.3,4.527A13.466,13.466,0,0,1,349.535,82.4Zm13.688,1.889a2.614,2.614,0,0,1-1.477-2.418,6,6,0,0,1,.334-1.713c.477-.048.952-.191,1-.334.44-1.238,2.333-6.094,5.189-7.521.095.046.143.143.143.38C368.412,74.666,364.413,84.33,363.224,84.284Zm48.753-7.523c-.237,0-.715.286-1.524.952-1.284,1.143-3.856,7-6.95,7a2.054,2.054,0,0,1-2.238-2.335,6.485,6.485,0,0,1,.189-1.332,2,2,0,0,0,.763.143c2.858,0,7-4.237,7-7.427a3.154,3.154,0,0,0-3.19-3c-3.032,0-6.294,4.151-7.785,8.181-1.3,2.058-3.3,5.769-6.022,5.769-1.429,0-2.047-1.049-2.047-2.478a7.377,7.377,0,0,1,.44-2.333c.66-2,3.047-6.046,4.142-6.046.237,0,.38.191.38.572a8.065,8.065,0,0,1-1.189,3.1.756.756,0,0,0-.143.44.514.514,0,0,0,.572.523c1.807,0,3.518-4.142,3.518-5.057,0-1.427-1.667-2.665-3.1-2.665-3.168,0-6.305,4.026-7.765,7.9-1.291,1.858-2.577,4.909-4.327,6.376a19.286,19.286,0,0,1,2.238-7.855,1.758,1.758,0,0,0,.095-.477c0-1-1.286-1.95-2.141-2.284a4.145,4.145,0,0,0-4-3.808c-3.81,0-7.618,7.046-7.618,12.532,0,1.429.857,4.38,3.285,4.38,1.715-.189,3.379-1.759,4.522-3.093a3.338,3.338,0,0,0,2.2,2.95l.191.1a2.718,2.718,0,0,0,.857.143,2.077,2.077,0,0,0,1.284-.44,15.688,15.688,0,0,0,2.667-3.685,5.218,5.218,0,0,0,5.277,3.874c2.5,0,4.355-1.842,5.892-4.142.18,2.135,2.335,4.142,5.3,4.142,3.9,0,6.286-4.331,8.284-8.044l.572-1a3.63,3.63,0,0,0,.523-1.381C412.119,76.855,412.073,76.761,411.976,76.761Zm-32.519,1.708a.686.686,0,0,0-.095.286,1.029,1.029,0,0,0,.523.761c0,.809-4.474,5.523-5.057,5.523-.095,0-.143-.143-.143-.332,0-1.858,3.713-11.046,5.189-11.046.24,0,.286.143.286.66A13.759,13.759,0,0,1,379.458,78.469Zm26.473-4.617a.415.415,0,0,1,.286.143.73.73,0,0,1,.095.38c0,1.335-1.952,5.571-4.177,5.571a.8.8,0,0,1-.334-.048c.18-.756,2.845-6.046,4.131-6.046Z" transform="translate(613.874 227.849)" fill="url(#linear-gradient)"/>
  </g>
</svg>
